{
    "asset": {
        "version": "2.0",
        "generator": "Open Asset Import Library (assimp v5.0.5eb040c7)"
    },
    "accessors": [
        {
            "bufferView": 0,
            "byteOffset": 0,
            "componentType": 5126,
            "count": 1636,
            "type": "VEC3",
            "max": [
                1.020292043685913,
                1.0459660291671754,
                1.0498390197753907
            ],
            "min": [
                -1.0427169799804688,
                -1.0649909973144532,
                -1.0387639999389649
            ]
        },
        {
            "bufferView": 1,
            "byteOffset": 0,
            "componentType": 5126,
            "count": 1636,
            "type": "VEC3",
            "max": [
                -1.7976931348623157e308,
                -1.7976931348623157e308,
                -1.7976931348623157e308
            ],
            "min": [
                1.7976931348623157e308,
                1.7976931348623157e308,
                1.7976931348623157e308
            ]
        },
        {
            "bufferView": 2,
            "byteOffset": 0,
            "componentType": 5125,
            "count": 1664,
            "type": "SCALAR",
            "max": [
                1635
            ],
            "min": [
                0
            ]
        },
        {
            "bufferView": 3,
            "byteOffset": 0,
            "componentType": 5126,
            "count": 197044,
            "type": "VEC3",
            "max": [
                1.0899720191955567,
                1.0829689502716065,
                1.0846259593963624
            ],
            "min": [
                -1.0932999849319459,
                -1.0748510360717774,
                -1.0903550386428834
            ]
        },
        {
            "bufferView": 4,
            "byteOffset": 0,
            "componentType": 5126,
            "count": 197044,
            "type": "VEC3",
            "max": [
                1.0,
                1.0,
                1.0
            ],
            "min": [
                -1.0,
                -1.0,
                -1.0
            ]
        },
        {
            "bufferView": 5,
            "byteOffset": 0,
            "componentType": 5125,
            "count": 503976,
            "type": "SCALAR",
            "max": [
                197043
            ],
            "min": [
                0
            ]
        },
        {
            "bufferView": 6,
            "byteOffset": 0,
            "componentType": 5126,
            "count": 24,
            "type": "VEC3",
            "max": [
                1.0125739574432374,
                1.0125739574432374,
                1.0125739574432374
            ],
            "min": [
                -1.0125739574432374,
                -1.0125739574432374,
                -1.0125739574432374
            ]
        },
        {
            "bufferView": 7,
            "byteOffset": 0,
            "componentType": 5126,
            "count": 24,
            "type": "VEC3",
            "max": [
                1.0,
                1.0,
                1.0
            ],
            "min": [
                -1.0,
                -1.0,
                -1.0
            ]
        },
        {
            "bufferView": 8,
            "byteOffset": 0,
            "componentType": 5125,
            "count": 36,
            "type": "SCALAR",
            "max": [
                23
            ],
            "min": [
                0
            ]
        }
    ],
    "buffers": [
        {
            "byteLength": 6791600,
            "uri": "result.bin"
        }
    ],
    "bufferViews": [
        {
            "buffer": 0,
            "byteOffset": 0,
            "byteLength": 19632,
            "target": 34962
        },
        {
            "buffer": 0,
            "byteOffset": 19632,
            "byteLength": 19632,
            "target": 34962
        },
        {
            "buffer": 0,
            "byteOffset": 39264,
            "byteLength": 6656,
            "target": 34963
        },
        {
            "buffer": 0,
            "byteOffset": 45920,
            "byteLength": 2364528,
            "target": 34962
        },
        {
            "buffer": 0,
            "byteOffset": 2410448,
            "byteLength": 2364528,
            "target": 34962
        },
        {
            "buffer": 0,
            "byteOffset": 4774976,
            "byteLength": 2015904,
            "target": 34963
        },
        {
            "buffer": 0,
            "byteOffset": 6790880,
            "byteLength": 288,
            "target": 34962
        },
        {
            "buffer": 0,
            "byteOffset": 6791168,
            "byteLength": 288,
            "target": 34962
        },
        {
            "buffer": 0,
            "byteOffset": 6791456,
            "byteLength": 144,
            "target": 34963
        }
    ],
    "materials": [
        {
            "name": "DefaultMaterial",
            "pbrMetallicRoughness": {
                "baseColorFactor": [
                    0.6000000238418579,
                    0.6000000238418579,
                    0.6000000238418579,
                    1.0
                ],
                "metallicFactor": 0.0
            }
        },
        {
            "name": "Material.001",
            "pbrMetallicRoughness": {
                "baseColorFactor": [
                    0.6000000238418579,
                    0.6000000238418579,
                    0.6000000238418579,
                    1.0
                ],
                "metallicFactor": 0.0
            }
        },
        {
            "name": "None",
            "pbrMetallicRoughness": {
                "baseColorFactor": [
                    0.6000000238418579,
                    0.6000000238418579,
                    0.6000000238418579,
                    1.0
                ],
                "metallicFactor": 0.0
            }
        }
    ],
    "meshes": [
        {
            "name": "Burning_Cube_by_3DHaupt_Plane",
            "primitives": [
                {
                    "mode": 1,
                    "material": 1,
                    "indices": 2,
                    "attributes": {
                        "POSITION": 0,
                        "NORMAL": 1
                    }
                },
                {
                    "mode": 4,
                    "material": 1,
                    "indices": 5,
                    "attributes": {
                        "POSITION": 3,
                        "NORMAL": 4
                    }
                }
            ]
        },
        {
            "name": "Cube_Cube.002",
            "primitives": [
                {
                    "mode": 4,
                    "material": 2,
                    "indices": 8,
                    "attributes": {
                        "POSITION": 6,
                        "NORMAL": 7
                    }
                }
            ]
        }
    ],
    "nodes": [
        {
            "name": "input.obj",
            "children": [
                1,
                2
            ]
        },
        {
            "name": "Burning_Cube_by_3DHaupt_Plane",
            "mesh": 0
        },
        {
            "name": "Cube_Cube.002",
            "mesh": 1
        }
    ],
    "scenes": [
        {
            "nodes": [
                0
            ]
        }
    ],
    "scene": 0
}