{
    "asset" : {
        "generator" : "Khronos glTF Blender I/O v1.6.16",
        "version" : "2.0"
    },
    "scene" : 0,
    "scenes" : [
        {
            "name" : "Scene",
            "nodes" : [
                0,
                1,
                2
            ]
        }
    ],
    "nodes" : [
        {
            "name" : "Light",
            "rotation" : [
                0.16907575726509094,
                0.7558803558349609,
                -0.27217137813568115,
                0.570947527885437
            ],
            "translation" : [
                4.076245307922363,
                5.903861999511719,
                -1.0054539442062378
            ]
        },
        {
            "name" : "Camera",
            "rotation" : [
                0.483536034822464,
                0.33687159419059753,
                -0.20870360732078552,
                0.7804827094078064
            ],
            "translation" : [
                7.358891487121582,
                4.958309173583984,
                6.925790786743164
            ]
        },
        {
            "mesh" : 0,
            "name" : "10781_Solar-Panels_V1",
            "rotation" : [
                0.7071068286895752,
                0,
                0,
                0.7071067094802856
            ]
        }
    ],
    "materials" : [
        {
            "doubleSided" : true,
            "name" : "_10781_Solar_Panels_V101___Default",
            "pbrMetallicRoughness" : {
                "baseColorTexture" : {
                    "index" : 0
                },
                "metallicFactor" : 0,
                "roughnessFactor" : 0.8945907354354858
            }
        },
        {
            "doubleSided" : true,
            "name" : "_10781_Solar_Panels_V102___Default",
            "pbrMetallicRoughness" : {
                "baseColorTexture" : {
                    "index" : 1
                },
                "metallicFactor" : 0,
                "roughnessFactor" : 0.7596299052238464
            }
        }
    ],
    "meshes" : [
        {
            "name" : "10781_Solar-Panels_V1",
            "primitives" : [
                {
                    "attributes" : {
                        "POSITION" : 0,
                        "NORMAL" : 1,
                        "TEXCOORD_0" : 2
                    },
                    "indices" : 3,
                    "material" : 0
                },
                {
                    "attributes" : {
                        "POSITION" : 4,
                        "NORMAL" : 5,
                        "TEXCOORD_0" : 6
                    },
                    "indices" : 7,
                    "material" : 1
                }
            ]
        }
    ],
    "textures" : [
        {
            "sampler" : 0,
            "source" : 0
        },
        {
            "sampler" : 0,
            "source" : 1
        }
    ],
    "images" : [
        {
            "bufferView" : 4,
            "mimeType" : "image/jpeg",
            "name" : "solar-rest"
        },
        {
            "bufferView" : 9,
            "mimeType" : "image/jpeg",
            "name" : "solar-panel"
        }
    ],
    "accessors" : [
        {
            "bufferView" : 0,
            "componentType" : 5126,
            "count" : 2416,
            "max" : [
                94.18409729003906,
                -1.1273000240325928,
                70.14029693603516
            ],
            "min" : [
                -72.54499816894531,
                -7.452300071716309,
                -81.73609924316406
            ],
            "type" : "VEC3"
        },
        {
            "bufferView" : 1,
            "componentType" : 5126,
            "count" : 2416,
            "type" : "VEC3"
        },
        {
            "bufferView" : 2,
            "componentType" : 5126,
            "count" : 2416,
            "type" : "VEC2"
        },
        {
            "bufferView" : 3,
            "componentType" : 5123,
            "count" : 4428,
            "type" : "SCALAR"
        },
        {
            "bufferView" : 5,
            "componentType" : 5126,
            "count" : 6912,
            "max" : [
                88.26629638671875,
                -2.330899953842163,
                68.60990142822266
            ],
            "min" : [
                -66.6272964477539,
                -3.0088999271392822,
                -80.01200103759766
            ],
            "type" : "VEC3"
        },
        {
            "bufferView" : 6,
            "componentType" : 5126,
            "count" : 6912,
            "type" : "VEC3"
        },
        {
            "bufferView" : 7,
            "componentType" : 5126,
            "count" : 6912,
            "type" : "VEC2"
        },
        {
            "bufferView" : 8,
            "componentType" : 5123,
            "count" : 12096,
            "type" : "SCALAR"
        }
    ],
    "bufferViews" : [
        {
            "buffer" : 0,
            "byteLength" : 28992,
            "byteOffset" : 0
        },
        {
            "buffer" : 0,
            "byteLength" : 28992,
            "byteOffset" : 28992
        },
        {
            "buffer" : 0,
            "byteLength" : 19328,
            "byteOffset" : 57984
        },
        {
            "buffer" : 0,
            "byteLength" : 8856,
            "byteOffset" : 77312
        },
        {
            "buffer" : 0,
            "byteLength" : 172436,
            "byteOffset" : 86168
        },
        {
            "buffer" : 0,
            "byteLength" : 82944,
            "byteOffset" : 258604
        },
        {
            "buffer" : 0,
            "byteLength" : 82944,
            "byteOffset" : 341548
        },
        {
            "buffer" : 0,
            "byteLength" : 55296,
            "byteOffset" : 424492
        },
        {
            "buffer" : 0,
            "byteLength" : 24192,
            "byteOffset" : 479788
        },
        {
            "buffer" : 0,
            "byteLength" : 493837,
            "byteOffset" : 503980
        }
    ],
    "samplers" : [
        {
            "magFilter" : 9729,
            "minFilter" : 9987
        }
    ],
    "buffers" : [
        {
            "byteLength" : 997820,
            "uri" : "data:application/octet-stream;base64,"
        }
    ]
}
